# xmcd CD database file
# Copyright (C) 1997 Ti Kan
# 
# Track frame offsets:
#     150
#     17082
#     30565
#     42900
#     63815
#     81380
#     102187
#     126655
#     137402
#     150435
#     168300
#     178430
#     192062
#     213612
# 
# Disc length: 3010 seconds
# 
# Revision: 1
# Processed by: cddbd v1.4b41PL1 Copyright (c) Steve Scherf et al.
# Submitted via: DiscPlay 4.0.3
# 
DISCID=bd0bc00e
DTITLE=Paul James Band - Rockin' the Blues
DYEAR=1900
DGENRE=
TTITLE0=Gotta Gimmee Some Of It
TTITLE1=Gonna Get you Baby
TTITLE2=I Gotta Move
TTITLE3=Stopping Place
TTITLE4=Hey Rosita
TTITLE5=Take It Easy
TTITLE6=What Is That She Got
TTITLE7=Anna Banana
TTITLE8=Jailhouse Rock
TTITLE9=Same Thing
TTITLE10=Crazy Little Kitten For Christmas
TTITLE11=Red Hot Mama
TTITLE12=Baby think It Over
TTITLE13=Can't Do Nothin' For Me
EXTD=
EXTT0=
EXTT1=
EXTT2=
EXTT3=
EXTT4=
EXTT5=
EXTT6=
EXTT7=
EXTT8=
EXTT9=
EXTT10=
EXTT11=
EXTT12=
EXTT13=
PLAYORDER=
